<?xml version="1.0" encoding="utf-8"?><svg id="Camada_1" xmlns="http://www.w3.org/2000/svg" version="1.1" xmlns:xlink="http://www.w3.org/1999/xlink" viewBox="0 0 679.1 467.5"><defs><style>
      .st0 {
        fill: #f58833;
      }

      .st1 {
        fill: #814e25;
      }

      .st2 {
        fill: #47b847;
      }

      .st3 {
        fill: #613a1b;
      }

      .st4 {
        fill: #6c9f3a;
      }

      .st5 {
        fill: #6a9d39;
      }

      .st6 {
        fill: #027202;
      }

      .st7 {
        fill: #402712;
      }

      .st8 {
        fill: url(#linear-gradient);
      }

      .st9 {
        fill: #81e7fb;
      }

      .st10 {
        fill: #8d501d;
      }
    </style><linearGradient id="linear-gradient" x1="66.4" y1="274.8" x2="170" y2="432.5" gradientTransform="translate(0 470) scale(1 -1)" gradientUnits="userSpaceOnUse"><stop offset="0" stop-color="#ff8000" /><stop offset=".4" stop-color="#ff8000" /><stop offset=".8" stop-color="#ffe000" /></linearGradient></defs><g><circle class="st8" cx="108" cy="131.9" r="90.9" /><path class="st9" d="M160.8,402.8c29.7,21.4,42.5,28.9,86.9,40.9,23.8-12.5,43.6-37.6,43.6-37.6-71.4-12-130.5-3.3-130.5-3.3h0Z" /><path class="st2" d="M40.1,383.5s58.6-25.7,108.6,10.5c39.2,28.3,49.1,36.2,99,49.7,0,0-62.9,38-132.7,7.5-54.8-24-74.9-67.7-74.9-67.7h0Z" /><path class="st6" d="M160.8,402.8s59.1-8.7,130.5,3.3c9.2-11.9,12.9-20.6,12.9-20.6-79.7-15.1-143.4,17.3-143.4,17.3" /><g><g><path class="st3" d="M146.9,392.7l2.7-15.7,1.6-15.7,4.9-301.5h14.5l-1.2,36.6,7.1,133,5,78.2,3.3,47.1,1.9,13.8,3.3,14.5,2.6,8.1s-12.6,2.8-31.7,11.6c0,0-7-4.9-13.9-10h0Z" /><path class="st1" d="M187.5,57.5l-2.8,4.2-4.6,5.3-10.1,8.8v-2.8c0,0,.1-.6.1-.6v-3.4c.1,0,6.6-6.4,6.6-6.4l2.2-3.5s6.8-1.3,8.5-1.7Z" /><polygon class="st1" points="156 63.8 156 72.3 147.7 62.5 145.1 58 152.9 59.3 154.9 62.5 156 63.8" /><path class="st1" d="M214.8,73.7s-15.2,12.7-45,11v-7.2s14.3-2.3,20.7-5.5,11.6-8.8,11.6-8.8l3.6,4s-4.5,6.2-14.9,10.5c0,0,9.9-.9,17.7-7.8,0,0,4.1,2.9,6.3,3.7h0Z" /><path class="st1" d="M271,134.9s-14.7,9.6-41.1,10.8c-31.1,1.4-53.2-13.6-53.2-13.6,5.7,2.4,16.3.4,16.3.4-2.4-1.6-4.2-5.4-4.2-5.4-8.2,1.3-15.4-1.7-17.5-2.6h0c-.4-7-.8-13.9-1.3-19.6,3.3,2.3,19.2,6.8,19.2,6.8,25.9,5.3,44-.5,44-.5-1.7-.9-6.6-4.9-6.6-4.9-28.2,4.4-49.6-5.3-49.6-5.3,0,0,17.6.6,44.1-8.8,28.8-10.3,44.2-23.7,44.2-23.7-1.6-.9-4.1-3.2-4.1-3.2,0,0-3.3,2.6-8.1,5.8-4.8,3.2-28.8,13.9-28.8,13.9,0,0-11.8,5.1-25.7,8-13.1,2.8-27.2,3.4-28.9,3.5,0-6,.2-11.7.2-11.7l-1,13.2v.5s-.3,3.5-.3,3.5v.5s-1.7,23.1-1.7,23.1v.6c0,0-.1.7-.1.7v3.3s0,.5,0,.5v4.3c0,0,0,.5,0,.5l1.8,158.4,2.5,76.5s1.9,15.7,6.3,25.5c0,0,7.8-2.8,15.2-4.8,0,0-3.8-11.2-5.9-22.6-.9-4.8-1.1-10.5-1.9-13.8,0,0-5.2-73.6-5.8-86.4-.6-12.7-6.1-103.9-6.5-113.9-.2-4.1-.4-9.8-.7-16h0c2.7,1.5,16.8,8.6,43,12,33.3,4.2,60.4-10.4,60.4-10.4-3.2-2.7-4.2-5.2-4.2-5.2h0Z" /><path class="st1" d="M155.6,86.7v5.6c0,0-29.8-8.6-42.5-19.1,0,0,4.7-2,5.5-3.9,0,0,8.1,7.1,37,17.4Z" /><path class="st1" d="M155.5,98v3.1c0,0,0,1.7,0,1.7v.2s-33.2,5.8-59.8-1.5c0,0,4.2-4.5,5-5.5,0,0,19,8.1,54.8,2h0Z" /><path class="st1" d="M117.6,131v5.4c-8.4-1.1-17.7-2.8-23.3-4.5-11-3.3-19.7-5.2-19.7-5.2l-3.1,6c3.7,2.2,38.1,8.6,54,10.1,15.9,1.5,29.3-5.1,29.3-5.1v-6.6c-2.4,2-13.5,5.5-19.3,6.4-2.4.4-8.1,0-14.7-.8,7.8-2,27.7-7.7,34.3-14.9v-1.5s0-.6,0-.6v-.6s0-.5,0-.5v-4.3c0,0-17,12.4-37.5,16.6h0Z" /></g><g><path class="st4" d="M124.2,18.6c3.7,4,4.8,9.1,4.8,9.1,0,0,.9-8,4.8-8s3.3,9.6,3.3,9.6c4.9-10,8.5-9.3,8.5-9.3,2.8,6.4,1.2,15.1,1.2,15.1,0,0,3.5-9.7,7.6-9.7s3.2,9.6,3.2,9.6c0,0,2.6-6.6,7.8-6.7s7.8,6.3,7.8,6.3c0,0-1.4-7.8,1.9-9.1s8,9,8,9c-.5-2-1.9-14.9.8-15.2,4.1-.5,9,9.5,9,9.5,0,0-1.1-9.1,3.4-9.1s4.4,9.2,4.4,9.2c.5-3.8,2.6-7.7,5.5-10.6.8-2.8,1.3-7.6-3-9.6-6.3-3-9.3,5.7-9.3,5.7,0,0-.9-9.2-6.1-10-7.7-1.2-13.3,8.7-13.3,8.7,0,0,.3-6.8-7.9-6.8s-7.8,9-7.8,9c0,0-3.4-9.3-11.4-9.6s-11.2,8.6-11.2,8.6c0,0-3.8-8.6-9-6.2-7.5,3.5-3.1,10.4-3.1,10.4h0Z" /><path class="st6" d="M145.1,58s12.6,3.5,33.9,1.3c25.3-2.7,35.3-24.3,36.3-27.6s4.6-18.8-1.6-17.7-12,8.2-13,14.9c0,0,.1-9.2-4.4-9.2s-3.4,9.1-3.4,9.1c0,0-4.9-10.1-9-9.6-2.8.4-1.3,13.2-.8,15.2,0,0-4.7-10.3-8-9s-1.9,9.1-1.9,9.1c0,0-2.6-6.4-7.8-6.2s-7.8,6.7-7.8,6.7c0,0,.9-9.5-3.2-9.5s-7.6,9.7-7.6,9.7c0,0,1.6-8.7-1.2-15.1,0,0-3.5-.7-8.5,9.3,0,0,.6-9.5-3.3-9.5s-4.8,8-4.8,8c0,0-2.7-12.5-13.7-13.9,0,0-5.9,2.2,0,18.2,3.9,10.5,11.4,19,29.8,25.9h0Z" /></g><g><path class="st4" d="M85.3,129.1h0c3.1,1.7,4.8,4.5,4.8,4.5,0,0-1.1-5.1,1.2-5.9s4,5.1,4,5.1c.9-7.1,3.2-7.4,3.2-7.4,3.1,3.3,3.9,8.9,3.9,8.9,0,0,0-6.6,2.6-7.5,2.5-.9,3.9,5.1,3.9,5.1,0,0,.2-4.6,3.3-5.7s6,2.1,6,2.1c0,0-2.5-4.4-.8-5.9s6.8,3.7,6.8,3.7c-.7-1.1-4.3-8.6-2.7-9.4,2.4-1.2,7.5,3.9,7.5,3.9,0,0-2.6-5.3.2-6.2,2.7-.9,4.6,4.7,4.6,4.7-.5-2.4,0-5.2,1.1-7.6-.1-1.9-.8-4.9-3.8-5.2-4.4-.5-4.4,5.4-4.4,5.4,0,0-2.5-5.4-5.8-4.8-4.9.9-6.2,8.1-6.2,8.1,0,0-1.2-4.2-6.2-2.4-5,1.7-2.8,7.1-2.8,7.1,0,0-4-4.9-8.9-3.4s-5,7.6-5,7.6c0,0-4.1-4.4-6.8-1.9-3.8,3.7.3,6.9.3,6.9h0Z" /><path class="st6" d="M106.3,148.6s8.4-.6,20.8-6.4c14.8-7,16.3-22.2,16.2-24.4-.1-2.2-1.2-12.3-4.7-10.4s-5.6,7.5-4.7,11.8c0,0-1.9-5.6-4.6-4.7s-.2,6.2-.2,6.2c0,0-5.1-5.1-7.4-3.9-1.6.8,2,8.3,2.7,9.4,0,0-5-5.2-6.8-3.7s.8,5.9.8,5.9c0,0-2.9-3.3-6-2.2s-3.3,5.7-3.3,5.7c0,0-1.4-6-3.9-5.1s-2.6,7.5-2.6,7.5c0,0-.9-5.6-3.9-8.9,0,0-2.3.3-3.2,7.4,0,0-1.7-5.9-4-5.1-2.4.8-1.2,5.9-1.2,5.9,0,0-4.3-7-11.2-5.5,0,0-3.2,2.6,3.8,11,4.6,5.5,10.9,9.1,23.5,9.4h0Z" /></g><g><path class="st4" d="M212,54.2c.5-4.8,4.4-6.4,4.4-6.4,4.6,6.1,3.8,11.8,3.8,11.8,1.2-4.2,4.4-5.8,4.4-5.8,5.4,3.6,4.6,11.1,4.6,11.1,1.7-7,5.9-9.2,5.9-9.2,2.1.5,2.5,7.5,2.5,9.4,0,0,.1,0,.2-.1.4-1.3,1.5-4.2,3.4-6.1,1.3-1.3,2.6-2.5,4.4-3,1-.5,5.9-3,4.4-4.7-1.7-2-5.4-2.6-8.9-1.2,0,0,6.6-3.5,2.3-5.8-4.4-2.3-10,2.3-11.1,3.4,0,0,2.1-4.8-4.2-10.3,0,0-3.2.7-3.8,5.4,0,0,.6-4.2-3.9-8,0,0-3.5.8-2.9,5,0,0-1.6-6-8.4-5,0,0-1.9,2.6-1.8,4.9,3.9,4,4.6,11.1,4.8,14.6h0Z" /><path class="st6" d="M218.1,75.3s5.2,1.8,11.5,2.4,9.9,1.3,14.3-1.3,11-7.6,10.5-10c-.4-1.6-4.6-1.3-4.6-1.3,0,0,9.6-4.7,3.1-7.9-6.5-3.1-9.2-.9-11.7,1.6s-3.6,6.7-3.6,6.7c0,0,0-9.2-2.5-9.9,0,0-4.1,2.3-5.9,9.2,0,0,.8-7.5-4.6-11.1,0,0-3.3,1.7-4.4,5.8,0,0,.8-5.8-3.8-11.8,0,0-5,2-4.4,8.5,0,0,.9-15.9-8.4-19.1,0,0-3.2,3.2-1.4,10.9,0,0-1.7-4.5-4.8-4.9s-3.5,9.3,0,14.5c3.5,5.2,7.8,12.6,20.7,17.6h0Z" /></g><g><path class="st4" d="M235.3,94.3c-.2-5.1,3.6-7.4,3.6-7.4,5.7,5.7,5.8,11.8,5.8,11.8.6-4.6,3.7-6.8,3.7-6.8,6.2,2.9,6.6,11,6.6,11,.7-7.6,4.7-10.6,4.7-10.6,2.4.2,3.8,7.4,4.1,9.5,0,0,.1-.1.2-.2.2-1.4.9-4.6,2.6-6.9,1.1-1.5,2.3-3,4.2-3.8,1-.7,5.7-4,3.9-5.7-2.1-1.8-6.1-1.9-9.5,0,0,0,6.4-4.7,1.5-6.4s-10.2,3.9-11.1,5.3c0,0,1.4-5.4-6-10.1,0,0-3.2,1.2-3.1,6.2,0,0,0-4.5-5.4-7.8,0,0-3.6,1.4-2.2,5.7,0,0-2.6-6-9.6-4,0,0-1.6,3-1.1,5.4,4.8,3.6,6.6,10.9,7.3,14.7h0Z" /><path class="st6" d="M245,115.7s5.8,1.1,12.5.7c6.7-.4,10.6-.2,14.8-3.6,4.2-3.5,10.4-9.7,9.5-12.2-.6-1.7-5.1-.7-5.1-.7,0,0,9.4-6.5,2.1-8.8-7.3-2.3-9.9.5-12.1,3.5-2.2,3-2.7,7.6-2.7,7.6,0,0-1.5-9.7-4.2-10,0,0-4,3-4.7,10.6,0,0-.3-8-6.6-11,0,0-3.2,2.2-3.7,6.8,0,0,0-6.2-5.8-11.8,0,0-4.9,2.9-3.3,9.6,0,0-1.5-16.9-11.9-18.8,0,0-2.8,3.8.2,11.7,0,0-2.5-4.5-5.9-4.4s-2.2,10.3,2.3,15.2c4.5,4.9,10.2,12,24.5,15.3h0Z" /></g><g><path class="st4" d="M262.8,52.8s3.3-5.3,5.7-3.5.9,7.5.9,7.5c0,0,5.2-8.6,9.1-6.3,5,2.9,1.9,10.5,1.9,10.5,1.6-4.5,5.6-5.8,5.6-5.8,1.7,2.1,1,5.2,1,5.2,0,0,3.1-4.6,5.3-3.5,2.2,1.2,2,3.4,2,3.4,3.9-3.5,8.1-2,8.7-1.7.1-.9,0-1.8-.4-2.8-2.4-5.2-7.8-2.2-7.8-2.2,1.5-1.4,1.7-4.3.6-5.4-1.8-1.7-5.5,1.1-5.5,1.1,0,0,.8-1.9-1.5-4.4-2.4-2.5-6.2,0-6.2,0,.7-2.1,0-4.7,0-4.7-4-.8-5.2,3.7-5.2,3.7,0,0-1.8-7.1-4.3-6.7s-2.1,4.6-2.1,4.6c0,0-2.5-4.6-7.1-4.6-2.5,0-3.2,2.2-3.2,4.2,3.5,5.9,2.7,11.4,2.7,11.4h0Z" /><path class="st6" d="M268.9,70.4s10.1,4.1,21.4.7,12.8-12.4,12.8-12.4c0,0-4.6-2.1-8.8,1.7,0,0,.2-2.2-2-3.4s-5.3,3.5-5.3,3.5c0,0,.7-3.1-1-5.2,0,0-4,1.3-5.6,5.8,0,0,3.1-7.7-1.9-10.5-3.9-2.3-9.1,6.3-9.1,6.3,0,0,1.6-5.7-.9-7.5s-5.7,3.5-5.7,3.5c0,0,1.2-7.5-4.9-14.4,0,0-8.4,1.7-7.2,10.5,1.2,8.9,5.2,12.7,9.6,16.3,4.4,3.6,8.6,5.3,8.6,5.3h0Z" /></g><g><path class="st4" d="M119.4,85.7s-5.1-5.6-2-9.8c3.1-4.2,5.7-1.5,5.7-1.5,0,0-.6-6.1,4.1-5.8,4.7.2,5.3,3.8,5.3,3.8,0,0,.3-6.1,4.9-6.6s7.8,4.5,7.8,4.5c0,0,2.8-9,12-3.5,9.2,5.5,10.7.3,10.7.3,0,0,7.5-2.4,10.3,4.4s-7.4,13.1-7.7,13.2-25.4,7.6-25.4,7.6l-21,1.2-4.7-7.8h0Z" /><path class="st6" d="M151.4,104.4c-30.4,8.5-40.7-14.5-40.7-14.5,11.7-11.8,18.1,1.4,18.1,1.4,2.8-10.6,10.9-3.4,10.9-3.4,5.5-13.3,15.2-.4,15.2-.4.6-14.1,10.6-5.9,10.6-5.9,5.1-9.2,12.7-10.1,12.7-10.1,0,0,5.5,23.9-26.8,32.9h0Z" /></g><g><g><path class="st4" d="M50.7,84.2c-.3-1.3,0-3.3,0-3.3,4.4.6,5.7,5.5,5.7,5.5.1-2.2,2.8-4,2.8-4,4.1,1.5,6.2,6.2,6.2,6.2,0,0-2.2-8.1,3.7-6,5.9,2.1,9.9,11,9.9,11-1.4-3.8.5-7.7.5-7.7,3.5.9,6.4,3.7,6.4,3.7-7.9-13.3,2.4-14.3,2.4-14.3,0,0,0-.2.1-.3-3.9-.2-7.5,2.2-7.5,2.2,0,0,.4-2.7-1.6-4.8-2.8-2.8-6.7,4.8-6.7,4.8,0,0,.2-4.7-4.1-8.6-4.3-4-7.7,3.9-7.7,3.9,0,0-2-5.2-5.7-4.9s-2.4,7-2.4,7c-.9-2.3-4.1-3.4-4.1-3.4-1.5,3-1.4,6.2-.9,8.5,2.2,2.1,3.1,4.6,3.1,4.6h0Z" /><path class="st5" d="M90.8,75.6c-.4-.3-.9-.5-1.4-.6h0c.3.1.8.3,1.4.6Z" /></g><path class="st6" d="M93.7,102.8s7-4.2,8-8.2,1.9-10.7-6.1-16c-8-5.3-7.4-3.3-7.4-3.3,0,0-10.3,1-2.4,14.3,0,0-2.8-2.8-6.4-3.7,0,0-1.9,3.9-.5,7.7,0,0-4-8.8-9.9-11s-3.7,6-3.7,6c0,0-2.1-4.7-6.2-6.2,0,0-2.7,1.8-2.8,4,0,0-1.3-4.9-5.7-5.5,0,0-.3,2,0,3.3,0,0-2.8-7.3-9.7-7.7,0,0-2.6,6.7.7,12.3s15.2,16.4,25.1,17.6,19.3.6,26.9-3.6h0Z" /></g><g><g><path class="st5" d="M200.2,109.5h0c-.4,0-.9,0-1.3.2.5-.1.9-.2,1.3-.2Z" /><path class="st4" d="M201.1,109.9s8.2,3-1.1,12.2c0,0,2.9-1.7,6-1.7,0,0,.7,3.6-1.2,6.4,0,0,5.2-6.4,10.5-6.9,5.3-.5,1.7,5.7,1.7,5.7,0,0,2.7-3.4,6.4-3.8,0,0,1.8,2,1.5,3.9,0,0,2.1-3.7,5.8-3.3,0,0-.1,1.7-.7,2.7,0,0,1.3-1.8,3.5-3.1.9-1.7,1.7-4.3,1.1-7.1,0,0-2.8.2-4.1,1.9,0,0,2.5-5.2-.5-6.2-3-1.1-5.7,2.8-5.7,2.8,0,0-1.1-7.1-5.5-4.8s-5.2,6.2-5.2,6.2c0,0-1.6-7-4.4-5.3-2.1,1.2-2.3,3.6-2.3,3.6,0,0-2.5-2.8-5.7-3.4.1.1,0,.3,0,.3h0Z" /></g><path class="st6" d="M190.7,131.3s-4.8-5-4.8-8.5c0-3.5.7-9.2,8.4-11.8s6.8-1.1,6.8-1.1c0,0,8.2,3-1.1,12.2,0,0,2.9-1.7,6-1.7,0,0,.7,3.6-1.2,6.4,0,0,5.2-6.4,10.5-6.9,5.3-.5,1.7,5.7,1.7,5.7,0,0,2.7-3.4,6.4-3.8,0,0,1.8,2,1.5,3.9,0,0,2.1-3.7,5.8-3.3,0,0-.1,1.7-.7,2.7,0,0,3.9-5.4,9.6-4.2,0,0,.7,6.1-3.2,9.9-3.9,3.9-16,10.2-24.3,9s-16-3.7-21.3-8.7h0Z" /></g><g><path class="st4" d="M273.7,108.2c1.5,4.1.7,10.3.7,10.3,3.2-6.7,9.7-6,9.7-6,0,2.1-1.5,10.3-1.5,10.3,3.9-8.1,14.5-13.2,14.5-13.2,1.5,5-.1,12.9-.1,12.9,7.5-10.7,16.5-12.9,16.5-12.9.9,5.7-2.5,11.9-2.5,11.9,5.2-8.6,16.9-10.3,17.4-10.4,2.2-2.8,5.6-7.8,5.5-10.7-.2-4.3-15.6,2.8-15.6,2.8,0,0,9.8-9.6,3.5-10.9-3.6-.7-14.3,7.2-14.3,7.2,0,0,3.1-6.6,2.5-8.7,0,0-11,3.3-14.6,11.2,0,0,2.7-6.9,2.4-9.7,0,0-12.5,3-16,8,0,0,3.5-5.5,3.8-8,0,0-15.4-2.3-18.9,12.5-3.5,14.8-2.7,15.6-2.7,15.6h0c.8-6.7,9.8-12.2,9.8-12.2h0Z" /><path class="st6" d="M269.1,133.2s5.6,13.4,22.4,16.3c4.8.8,6.4,0,6.4,0,0,0-2.4-5.4-5.3-7.9,0,0,12.2,8.9,24.2,5.4,7.9-2.4,8.7-3.8,8.7-3.8,0,0-3.2-3.9-6.7-4,0,0,14.8.3,19.5-8.4,3.1-5.8-5.3-6.5-7.3-5.8,0,0,9.2-7.4,5.2-12.8-1.4-1.9-7.7-1.1-7.7-1.1,0,0-12.1,1.5-17.5,10.4,0,0,3.4-6.2,2.5-11.9,0,0-9,2.2-16.5,12.9,0,0,1.6-8,.1-12.9,0,0-10.6,5.1-14.5,13.2,0,0,1.5-8.1,1.5-10.3,0,0-6.5-.7-9.7,6,0,0,.8-6.1-.7-10.3,0,0-11.7,7.2-9.5,15.1,2.1,7.9,5,9.9,5,9.9h0Z" /></g><g><path class="st4" d="M66.3,100.3c-.7,2.3.2,8.2.2,8.2-1.2-5.6-10.7-12.8-10.7-12.8-1.3,2.3-1.6,9.2-1.6,9.2-.1-8.1-8.3-15-8.3-15-1.3,1.5-1.1,8.3-1.1,8.3,0,0-6.1-10.8-9.5-11.5-5.9-1.3-1.1,10.6-1.1,10.6,0,0-10.4-11.9-12.2-8.3-1.2,2.5-.1,7.9.7,11.2.5.3,9.8,6.1,10.9,15.4,0,0-.6-6.6,2.3-11.1,0,0,6.8,5.2,9.2,17.2,0,0,1.6-7.4,4.8-11.1,0,0,7.1,8.3,7.4,16.7,0,0,1.8-7.5,2.5-9.3,0,0,5.8,1.8,6,8.7,0,0,1.6-5.5,4.4-8.5,0,0,5.6,8.1,3.7,14.1h0s.9-.4,3.6-14.3c2.6-13.9-11.4-17.7-11.4-17.7h0Z" /><path class="st6" d="M64.9,141.2s-9.8,9.3-25.2,5.4c-4.4-1.1-5.4-2.4-5.4-2.4,0,0,4-3.7,7.5-4.8,0,0-13.7,3.1-22.6-4.5-5.8-5-6-6.5-6-6.5,0,0,4.2-2.1,7.2-.9,0,0-12.7-5.3-13.4-14.5-.4-6.1,6.9-3.5,8.4-2.2,0,0-5-9.8.4-12.8,1.9-1.1,6.9,2,6.9,2,0,0,9.8,5.9,11,15.4,0,0-.6-6.6,2.3-11.1,0,0,6.8,5.2,9.2,17.2,0,0,1.6-7.4,4.8-11.1,0,0,7.1,8.3,7.4,16.7,0,0,1.8-7.5,2.5-9.3,0,0,5.8,1.8,6,8.7,0,0,1.6-5.5,4.4-8.5,0,0,7.2,10.5,2.5,16.4-4.8,5.9-7.9,6.6-7.9,6.6h0Z" /></g><path class="st4" d="M87.8,59.5c7.2-10.3,14.7.7,14.7.7,1-10.4,9.8-3.7,9.8-3.7,1.3-2.4,2.5-4,3.6-5.2.2-1.6,1-3.6,2.7-6.1,5.1-7.4-9.8,1.2-9.8,1.2-1.2-15.6-9.5,0-9.5,0-1-3.9-4.9-10.3-7.4-9.9-2.5.4-3.9,8.4-3.9,8.4-7.2-9.3-9.1,1.9-9.1,1.9,0,0-8.4-6.7-10.3-2.6-1.6,3.4,2.3,8.5,3.8,10.2,3.3-3,10.7-7.7,15.4,5h0Z" /><path class="st6" d="M87.8,59.5c7.2-10.3,14.7.7,14.7.7,1-10.4,9.8-3.7,9.8-3.7,9-15.8,10.9-.8,10.9-.8,6.1-6.9,11.2,14.4-15.2,21.3-26.4,6.9-37.7-1.8-43.4-15.6-5.7-13.8,6.2-5.3,6.2-5.3,0,0,10.9-13.3,17,3.4h0Z" /></g><path class="st0" d="M278.1,327.5c-.3-2.8-.9-6.5-4.4-8-15.8-6.8-27.9-4.2-27.9-4.2,0,0-1.3-2.6-5.1-2.6-6.9,0-2.7,5.4-2.7,7.1s-5,6.9-10.5,8.5c-5.5,1.6-21.5,2.8-30,3-7.1.1-12.6,2.1-14.2,2.8.8,11.9,1.4,20.6,1.4,20.6.8,3.4,1,9,1.9,13.8,1,5.4,2.3,10.7,3.5,14.8h0c28.5-13.7,48.1-.8,48.1-.8,7.3-.8,11.9-.5,13.1-.9,1.2-.4-.7-2.8-4.4-7.4-3.8-4.6-3.4-7.7-3-9.6.5-1.9,7.8-11.4,7.8-11.4,6.4-11.1,10.6-10.9,17.4-12.3,4.7-1,9.6-7.3,9-13.4h0Z" /><path class="st10" d="M256.9,323.1s.6-.4,1-.9,2.3-1.8,3.5-1.2,2.2,1.5,1.4,3-2.1,1.3-3.6,1.2-1.8-.2-1.8-.2l-.5-.9v-1h0Z" /></g><g><path class="st7" d="M532.5,208.9c5.7-6.1,40.1-5.2,48.4-2.8,13.5,3.8,17.4,20.2,7.8,30.3,18.2,8.6,12.8,29.9-5.2,35.1-11.3,3.2-30.1,2.4-41.6-.2-4.3-1-11.6-2.1-11.8-7.6-.2-5.5,3-15.4,3.1-21.8.2-6.6-4-29.6-.8-32.9ZM551.8,233.6c10.1,1.4,24.5-1.2,21.5-14.5-2.2-10-15.7-4.8-22.6-5.1l1.1,19.6h0ZM571.9,242.3c-5.4-1.2-14.3.9-20.1,0l-1.1,20.7c9.3,1.3,30,4.2,29.4-10.3-.2-3.6-4.9-9.6-8.2-10.4h0Z" /><path class="st7" d="M387.6,246.7l10.9,7.1c2.1,1.9,5.5,5.5,6,8.1,1.5,7-10.1,13.9-15.6,10.7-.8-.4-8.4-10.9-11.1-13.4-1.9-1.7-14.5-11.5-15.8-11.4-4.8,9.4,2.8,27.6-14.1,24.9-14.2-2.2-7.5-15.6-7.1-25.4.4-7.5-2.7-33.1-.1-37.1,4.2-6.5,32.3-6.8,39.7-5.8,23.8,3.1,27.7,32.7,7.2,42.3h0ZM361.5,239.1c9.9,2.4,18,.1,18.6-11.4.8-14.3-9.1-15.8-20.7-13.6l2.2,25h0Z" /><path class="st7" d="M271,204.5c20.8-4.7,12.6,13.7,12.2,25.3-.3,7.6.2,25,5.6,30.4,7.2,7.2,18.2,3.4,21.4-5.6,4.7-13.5.4-28.9.2-42.1-.1-10.6,14.3-10.4,18.1-6.1,5.3,6.1,5.2,34.7,3.4,42.8-4.6,20.6-25.5,27.2-44.4,23.2-22.6-4.8-26.4-24.2-25-44.7.4-6.1,2-21.6,8.4-23.1h0Z" /><path class="st7" d="M649.5,251.1l-23.9.4c-5.1,9.8-.9,24.2-16.3,20.8-6.5-1.5-8.5-5.3-7.3-11.8,2.2-11.9,18-41.6,26-51.2,3.6-4.3,7.2-6.7,13.2-4.9,8.6,2.6,27.2,41,30.1,50.3,2,6.6,5.2,14.1-3.2,17.4-15.6,6.1-15.6-10.5-18.6-21.1h0ZM646.4,241.2l-9.8-23.9-8.7,25,18.5-1.1h0Z" /><path class="st7" d="M254.9,254.5c4.6,7.3-13.1,17.1-19.1,18.1-30.6,4.8-46.8-11.2-43.8-41.6,2.6-26.3,40.7-36,58.2-19.1,6.2,6,11.9,23.2,0,24-17.3,1.1-7.6-17.9-22.4-22.2-19.3-5.5-19.1,29.1-12.2,39.4,5.2,7.8,14.7,10.1,23.3,7.1,3.7-1.3,13.5-10,16.2-5.8h0Z" /><path class="st7" d="M476.8,213c-4.2,18.4-1.2,37.2-1.3,55.8-3.3,3.7-13,5.5-16.7,1.9-6.6-6.4-4.9-46.4-3.8-56.6-1.2-1.4-15.6,13-21.6,3.7-7-11,10.8-13,17.8-13.5,8.2-.6,41.7-.3,46.8,5.5,4.4,5.1.6,12.1-6.4,11.9-5.5-.2-9.5-6.9-14.8-8.6h0Z" /><path class="st7" d="M510.2,204.4c3.8-.7,12.6,1.1,13.9,5.2,1.8,5.4-1.6,21.1-1.7,27.8-.1,9.7,1.4,19.5,2,29.2-1,6-15.2,8.8-18.6,2.7-3.8-6.9-3.6-36.1-3-44.9.4-5.4,1.3-18.7,7.4-19.9h0Z" /><path class="st7" d="M415.6,204.4c3.8-.7,12.6,1.1,13.9,5.2,1.7,5.3-1.6,21-1.7,27.8-.2,9.8,1.1,19.5,2,29.2-.8,5.5-15.9,10.5-19.3.2-3.7-11.2-3.5-45,0-56.4.9-2.9,1.7-5.2,5.1-5.9h0Z" /></g><g><path class="st7" d="M526.8,305.7c-2.2,1.7-9.5,1.9-11.8.4-1.8-1.2-1.2-4.4-3.1-6-7.1-6.1-11.4,3.7-12.7,9.7,13.7-2.4,32-.4,30.9,17.6-1,17.1-20.3,20.7-33.9,16.2-17.4-5.8-17.8-44.5,0-51.5,10.2-4,35.4-1.6,30.5,13.6h0ZM499.5,318c-4.4,7,11,33.1,13.9,8.6,1.3-11-11.3-12.7-13.9-8.6h0Z" /><path class="st7" d="M425.4,294.8c11.9,10,10.9,45.6-8,49.1-25.4,4.7-34.2-15.2-29.6-37,3.4-16.2,25.6-22.1,37.6-12.1h0ZM405.7,300.5c-5.7,5.8-3.5,36.4,4.8,36.4s9.2-34.3,2.2-37.6c-1.9-1.1-5.5-.3-7,1.2h0Z" /><path class="st7" d="M354,335.4c0,2.7,6.3,1.5,7.9,1.3,4.7-.7,20.8-7.9,22.8-1.9,3.7,11-26.9,9.9-32.9,9.4-5.6-.5-17.5-1.9-13.3-10.3,1.2-2.3,19.2-14.9,23.6-20.5,11.5-14.8-1.7-20.1-5.6-11.4-1.2,2.7-.6,6.7-1.8,8.5-3.6,5.4-21.5,2.2-13.1-11.7,6.9-11.3,37.8-12.5,40.1,2.2,3.1,19.2-12,28.5-27.8,34.5h0Z" /><path class="st7" d="M450.8,335.4c0,2.7,6.3,1.5,7.9,1.3,4.7-.7,20.8-7.9,22.8-1.9,2.5,7.4-9,8.7-14,9.2-6,.6-32.5,1.8-32.8-6.4-.2-7.2,38-27.4,27.5-38.6-7.4-7.9-10,10.6-10.6,11.4-3.6,5.4-22.5,2.2-12.3-12.3,7-9.9,33.1-11.3,38.3-.6,8.6,17.7-11.7,33.4-26.8,37.9h0Z" /></g></svg>